<svg width="128" height="128" viewBox="0 0 128 128" xmlns="http://www.w3.org/2000/svg">
  <!-- Background circle -->
  <circle cx="64" cy="64" r="60" fill="#4A90E2" opacity="0.1"/>

  <!-- Left document (source) -->
  <rect x="20" y="35" width="35" height="45" fill="#4A90E2" rx="3"/>
  <line x1="28" y1="45" x2="47" y2="45" stroke="white" stroke-width="2"/>
  <line x1="28" y1="52" x2="47" y2="52" stroke="white" stroke-width="2"/>
  <line x1="28" y1="59" x2="43" y2="59" stroke="white" stroke-width="2"/>
  <line x1="28" y1="66" x2="47" y2="66" stroke="white" stroke-width="2"/>

  <!-- Right preview (rendered) -->
  <rect x="73" y="35" width="35" height="45" fill="#7CB342" rx="3"/>
  <circle cx="83" cy="48" r="2" fill="white"/>
  <rect x="87" y="46" width="16" height="4" fill="white" rx="1"/>
  <rect x="83" y="55" width="20" height="3" fill="white" opacity="0.8" rx="1"/>
  <rect x="83" y="61" width="18" height="3" fill="white" opacity="0.8" rx="1"/>
  <rect x="83" y="67" width="22" height="3" fill="white" opacity="0.8" rx="1"/>

  <!-- Sync arrow (curved) -->
  <defs>
    <marker id="arrowhead" markerWidth="10" markerHeight="10" refX="9" refY="3" orient="auto">
      <polygon points="0 0, 10 3, 0 6" fill="#FF6B35"/>
    </marker>
  </defs>
  <path d="M 55 45 Q 64 35, 73 45" stroke="#FF6B35" stroke-width="3" fill="none" marker-end="url(#arrowhead)"/>
  <path d="M 73 75 Q 64 85, 55 75" stroke="#FF6B35" stroke-width="3" fill="none" marker-end="url(#arrowhead)"/>

  <!-- Selection highlight on preview -->
  <rect x="81" y="54" width="24" height="16" fill="#FFD700" opacity="0.3" rx="2"/>
</svg>
